<?xml version="1.0" encoding="utf-8"?>
<svg xmlns="http://www.w3.org/2000/svg" xmlns:xlink="http://www.w3.org/1999/xlink" width="600" height="400" viewBox="0 0 2400 1600">
<defs>
  <clipPath id="clip910">
    <rect x="0" y="0" width="2400" height="1600"/>
  </clipPath>
</defs>
<path clip-path="url(#clip910)" d="M0 1600 L2400 1600 L2400 0 L0 0  Z" fill="#ffffff" fill-rule="evenodd" fill-opacity="1"/>
<defs>
  <clipPath id="clip911">
    <rect x="480" y="0" width="1681" height="1600"/>
  </clipPath>
</defs>
<path clip-path="url(#clip910)" d="M184.191 1486.45 L2352.76 1486.45 L2352.76 123.472 L184.191 123.472  Z" fill="#ffffff" fill-rule="evenodd" fill-opacity="1"/>
<defs>
  <clipPath id="clip912">
    <rect x="184" y="123" width="2170" height="1364"/>
  </clipPath>
</defs>
<polyline clip-path="url(#clip912)" style="stroke:#000000; stroke-linecap:round; stroke-linejoin:round; stroke-width:2; stroke-opacity:0.1; fill:none" points="245.565,1486.45 245.565,123.472 "/>
<polyline clip-path="url(#clip912)" style="stroke:#000000; stroke-linecap:round; stroke-linejoin:round; stroke-width:2; stroke-opacity:0.1; fill:none" points="757.019,1486.45 757.019,123.472 "/>
<polyline clip-path="url(#clip912)" style="stroke:#000000; stroke-linecap:round; stroke-linejoin:round; stroke-width:2; stroke-opacity:0.1; fill:none" points="1268.47,1486.45 1268.47,123.472 "/>
<polyline clip-path="url(#clip912)" style="stroke:#000000; stroke-linecap:round; stroke-linejoin:round; stroke-width:2; stroke-opacity:0.1; fill:none" points="1779.93,1486.45 1779.93,123.472 "/>
<polyline clip-path="url(#clip912)" style="stroke:#000000; stroke-linecap:round; stroke-linejoin:round; stroke-width:2; stroke-opacity:0.1; fill:none" points="2291.38,1486.45 2291.38,123.472 "/>
<polyline clip-path="url(#clip910)" style="stroke:#000000; stroke-linecap:round; stroke-linejoin:round; stroke-width:4; stroke-opacity:1; fill:none" points="184.191,1486.45 2352.76,1486.45 "/>
<polyline clip-path="url(#clip910)" style="stroke:#000000; stroke-linecap:round; stroke-linejoin:round; stroke-width:4; stroke-opacity:1; fill:none" points="245.565,1486.45 245.565,1467.55 "/>
<polyline clip-path="url(#clip910)" style="stroke:#000000; stroke-linecap:round; stroke-linejoin:round; stroke-width:4; stroke-opacity:1; fill:none" points="757.019,1486.45 757.019,1467.55 "/>
<polyline clip-path="url(#clip910)" style="stroke:#000000; stroke-linecap:round; stroke-linejoin:round; stroke-width:4; stroke-opacity:1; fill:none" points="1268.47,1486.45 1268.47,1467.55 "/>
<polyline clip-path="url(#clip910)" style="stroke:#000000; stroke-linecap:round; stroke-linejoin:round; stroke-width:4; stroke-opacity:1; fill:none" points="1779.93,1486.45 1779.93,1467.55 "/>
<polyline clip-path="url(#clip910)" style="stroke:#000000; stroke-linecap:round; stroke-linejoin:round; stroke-width:4; stroke-opacity:1; fill:none" points="2291.38,1486.45 2291.38,1467.55 "/>
<path clip-path="url(#clip910)" d="M235.947 1544.91 L243.586 1544.91 L243.586 1518.55 L235.276 1520.21 L235.276 1515.95 L243.54 1514.29 L248.216 1514.29 L248.216 1544.91 L255.854 1544.91 L255.854 1548.85 L235.947 1548.85 L235.947 1544.91 Z" fill="#000000" fill-rule="nonzero" fill-opacity="1" /><path clip-path="url(#clip910)" d="M751.672 1544.91 L767.991 1544.91 L767.991 1548.85 L746.047 1548.85 L746.047 1544.91 Q748.709 1542.16 753.292 1537.53 Q757.899 1532.88 759.079 1531.53 Q761.325 1529.01 762.204 1527.27 Q763.107 1525.51 763.107 1523.82 Q763.107 1521.07 761.163 1519.33 Q759.241 1517.6 756.14 1517.6 Q753.941 1517.6 751.487 1518.36 Q749.056 1519.13 746.279 1520.68 L746.279 1515.95 Q749.103 1514.82 751.556 1514.24 Q754.01 1513.66 756.047 1513.66 Q761.417 1513.66 764.612 1516.35 Q767.806 1519.03 767.806 1523.52 Q767.806 1525.65 766.996 1527.57 Q766.209 1529.47 764.103 1532.07 Q763.524 1532.74 760.422 1535.95 Q757.32 1539.15 751.672 1544.91 Z" fill="#000000" fill-rule="nonzero" fill-opacity="1" /><path clip-path="url(#clip910)" d="M1272.72 1530.21 Q1276.08 1530.93 1277.95 1533.2 Q1279.85 1535.47 1279.85 1538.8 Q1279.85 1543.92 1276.33 1546.72 Q1272.81 1549.52 1266.33 1549.52 Q1264.16 1549.52 1261.84 1549.08 Q1259.55 1548.66 1257.1 1547.81 L1257.1 1543.29 Q1259.04 1544.43 1261.36 1545.01 Q1263.67 1545.58 1266.19 1545.58 Q1270.59 1545.58 1272.88 1543.85 Q1275.2 1542.11 1275.2 1538.8 Q1275.2 1535.75 1273.05 1534.03 Q1270.92 1532.3 1267.1 1532.3 L1263.07 1532.3 L1263.07 1528.45 L1267.28 1528.45 Q1270.73 1528.45 1272.56 1527.09 Q1274.39 1525.7 1274.39 1523.11 Q1274.39 1520.45 1272.49 1519.03 Q1270.61 1517.6 1267.1 1517.6 Q1265.17 1517.6 1262.98 1518.01 Q1260.78 1518.43 1258.14 1519.31 L1258.14 1515.14 Q1260.8 1514.4 1263.11 1514.03 Q1265.45 1513.66 1267.51 1513.66 Q1272.84 1513.66 1275.94 1516.09 Q1279.04 1518.5 1279.04 1522.62 Q1279.04 1525.49 1277.4 1527.48 Q1275.75 1529.45 1272.72 1530.21 Z" fill="#000000" fill-rule="nonzero" fill-opacity="1" /><path clip-path="url(#clip910)" d="M1782.94 1518.36 L1771.13 1536.81 L1782.94 1536.81 L1782.94 1518.36 M1781.71 1514.29 L1787.59 1514.29 L1787.59 1536.81 L1792.52 1536.81 L1792.52 1540.7 L1787.59 1540.7 L1787.59 1548.85 L1782.94 1548.85 L1782.94 1540.7 L1767.33 1540.7 L1767.33 1536.19 L1781.71 1514.29 Z" fill="#000000" fill-rule="nonzero" fill-opacity="1" /><path clip-path="url(#clip910)" d="M2281.66 1514.29 L2300.02 1514.29 L2300.02 1518.22 L2285.94 1518.22 L2285.94 1526.7 Q2286.96 1526.35 2287.98 1526.19 Q2289 1526 2290.02 1526 Q2295.8 1526 2299.18 1529.17 Q2302.56 1532.34 2302.56 1537.76 Q2302.56 1543.34 2299.09 1546.44 Q2295.62 1549.52 2289.3 1549.52 Q2287.12 1549.52 2284.85 1549.15 Q2282.61 1548.78 2280.2 1548.04 L2280.2 1543.34 Q2282.28 1544.47 2284.51 1545.03 Q2286.73 1545.58 2289.21 1545.58 Q2293.21 1545.58 2295.55 1543.48 Q2297.89 1541.37 2297.89 1537.76 Q2297.89 1534.15 2295.55 1532.04 Q2293.21 1529.94 2289.21 1529.94 Q2287.33 1529.94 2285.46 1530.35 Q2283.6 1530.77 2281.66 1531.65 L2281.66 1514.29 Z" fill="#000000" fill-rule="nonzero" fill-opacity="1" /><polyline clip-path="url(#clip912)" style="stroke:#000000; stroke-linecap:round; stroke-linejoin:round; stroke-width:2; stroke-opacity:0.1; fill:none" points="184.191,1250.05 2352.76,1250.05 "/>
<polyline clip-path="url(#clip912)" style="stroke:#000000; stroke-linecap:round; stroke-linejoin:round; stroke-width:2; stroke-opacity:0.1; fill:none" points="184.191,1002.78 2352.76,1002.78 "/>
<polyline clip-path="url(#clip912)" style="stroke:#000000; stroke-linecap:round; stroke-linejoin:round; stroke-width:2; stroke-opacity:0.1; fill:none" points="184.191,755.505 2352.76,755.505 "/>
<polyline clip-path="url(#clip912)" style="stroke:#000000; stroke-linecap:round; stroke-linejoin:round; stroke-width:2; stroke-opacity:0.1; fill:none" points="184.191,508.231 2352.76,508.231 "/>
<polyline clip-path="url(#clip912)" style="stroke:#000000; stroke-linecap:round; stroke-linejoin:round; stroke-width:2; stroke-opacity:0.1; fill:none" points="184.191,260.957 2352.76,260.957 "/>
<polyline clip-path="url(#clip910)" style="stroke:#000000; stroke-linecap:round; stroke-linejoin:round; stroke-width:4; stroke-opacity:1; fill:none" points="184.191,1486.45 184.191,123.472 "/>
<polyline clip-path="url(#clip910)" style="stroke:#000000; stroke-linecap:round; stroke-linejoin:round; stroke-width:4; stroke-opacity:1; fill:none" points="184.191,1250.05 203.088,1250.05 "/>
<polyline clip-path="url(#clip910)" style="stroke:#000000; stroke-linecap:round; stroke-linejoin:round; stroke-width:4; stroke-opacity:1; fill:none" points="184.191,1002.78 203.088,1002.78 "/>
<polyline clip-path="url(#clip910)" style="stroke:#000000; stroke-linecap:round; stroke-linejoin:round; stroke-width:4; stroke-opacity:1; fill:none" points="184.191,755.505 203.088,755.505 "/>
<polyline clip-path="url(#clip910)" style="stroke:#000000; stroke-linecap:round; stroke-linejoin:round; stroke-width:4; stroke-opacity:1; fill:none" points="184.191,508.231 203.088,508.231 "/>
<polyline clip-path="url(#clip910)" style="stroke:#000000; stroke-linecap:round; stroke-linejoin:round; stroke-width:4; stroke-opacity:1; fill:none" points="184.191,260.957 203.088,260.957 "/>
<path clip-path="url(#clip910)" d="M81.0614 1232.77 L99.4178 1232.77 L99.4178 1236.71 L85.3438 1236.71 L85.3438 1245.18 Q86.3623 1244.83 87.3808 1244.67 Q88.3993 1244.49 89.4178 1244.49 Q95.2049 1244.49 98.5845 1247.66 Q101.964 1250.83 101.964 1256.25 Q101.964 1261.82 98.4919 1264.93 Q95.0197 1268 88.7003 1268 Q86.5243 1268 84.2558 1267.63 Q82.0105 1267.26 79.6031 1266.52 L79.6031 1261.82 Q81.6864 1262.96 83.9086 1263.51 Q86.1308 1264.07 88.6077 1264.07 Q92.6123 1264.07 94.9502 1261.96 Q97.2882 1259.86 97.2882 1256.25 Q97.2882 1252.63 94.9502 1250.53 Q92.6123 1248.42 88.6077 1248.42 Q86.7327 1248.42 84.8577 1248.84 Q83.0058 1249.26 81.0614 1250.13 L81.0614 1232.77 Z" fill="#000000" fill-rule="nonzero" fill-opacity="1" /><path clip-path="url(#clip910)" d="M111.177 1261.45 L116.061 1261.45 L116.061 1267.33 L111.177 1267.33 L111.177 1261.45 Z" fill="#000000" fill-rule="nonzero" fill-opacity="1" /><path clip-path="url(#clip910)" d="M136.246 1235.85 Q132.635 1235.85 130.807 1239.42 Q129.001 1242.96 129.001 1250.09 Q129.001 1257.19 130.807 1260.76 Q132.635 1264.3 136.246 1264.3 Q139.881 1264.3 141.686 1260.76 Q143.515 1257.19 143.515 1250.09 Q143.515 1242.96 141.686 1239.42 Q139.881 1235.85 136.246 1235.85 M136.246 1232.15 Q142.056 1232.15 145.112 1236.76 Q148.191 1241.34 148.191 1250.09 Q148.191 1258.82 145.112 1263.42 Q142.056 1268 136.246 1268 Q130.436 1268 127.357 1263.42 Q124.302 1258.82 124.302 1250.09 Q124.302 1241.34 127.357 1236.76 Q130.436 1232.15 136.246 1232.15 Z" fill="#000000" fill-rule="nonzero" fill-opacity="1" /><path clip-path="url(#clip910)" d="M80.8299 985.499 L103.052 985.499 L103.052 987.49 L90.5058 1020.06 L85.6216 1020.06 L97.4271 989.435 L80.8299 989.435 L80.8299 985.499 Z" fill="#000000" fill-rule="nonzero" fill-opacity="1" /><path clip-path="url(#clip910)" d="M112.172 1014.18 L117.057 1014.18 L117.057 1020.06 L112.172 1020.06 L112.172 1014.18 Z" fill="#000000" fill-rule="nonzero" fill-opacity="1" /><path clip-path="url(#clip910)" d="M127.288 985.499 L145.644 985.499 L145.644 989.435 L131.57 989.435 L131.57 997.907 Q132.589 997.56 133.607 997.397 Q134.626 997.212 135.644 997.212 Q141.431 997.212 144.811 1000.38 Q148.191 1003.55 148.191 1008.97 Q148.191 1014.55 144.718 1017.65 Q141.246 1020.73 134.927 1020.73 Q132.751 1020.73 130.482 1020.36 Q128.237 1019.99 125.83 1019.25 L125.83 1014.55 Q127.913 1015.68 130.135 1016.24 Q132.357 1016.8 134.834 1016.8 Q138.839 1016.8 141.177 1014.69 Q143.515 1012.58 143.515 1008.97 Q143.515 1005.36 141.177 1003.25 Q138.839 1001.15 134.834 1001.15 Q132.959 1001.15 131.084 1001.56 Q129.232 1001.98 127.288 1002.86 L127.288 985.499 Z" fill="#000000" fill-rule="nonzero" fill-opacity="1" /><path clip-path="url(#clip910)" d="M51.6634 768.85 L59.3023 768.85 L59.3023 742.484 L50.9921 744.151 L50.9921 739.892 L59.256 738.225 L63.9319 738.225 L63.9319 768.85 L71.5707 768.85 L71.5707 772.785 L51.6634 772.785 L51.6634 768.85 Z" fill="#000000" fill-rule="nonzero" fill-opacity="1" /><path clip-path="url(#clip910)" d="M91.0151 741.304 Q87.404 741.304 85.5753 744.869 Q83.7697 748.41 83.7697 755.54 Q83.7697 762.646 85.5753 766.211 Q87.404 769.753 91.0151 769.753 Q94.6493 769.753 96.4548 766.211 Q98.2835 762.646 98.2835 755.54 Q98.2835 748.41 96.4548 744.869 Q94.6493 741.304 91.0151 741.304 M91.0151 737.6 Q96.8252 737.6 99.8808 742.207 Q102.959 746.79 102.959 755.54 Q102.959 764.267 99.8808 768.873 Q96.8252 773.456 91.0151 773.456 Q85.2049 773.456 82.1262 768.873 Q79.0707 764.267 79.0707 755.54 Q79.0707 746.79 82.1262 742.207 Q85.2049 737.6 91.0151 737.6 Z" fill="#000000" fill-rule="nonzero" fill-opacity="1" /><path clip-path="url(#clip910)" d="M111.177 766.906 L116.061 766.906 L116.061 772.785 L111.177 772.785 L111.177 766.906 Z" fill="#000000" fill-rule="nonzero" fill-opacity="1" /><path clip-path="url(#clip910)" d="M136.246 741.304 Q132.635 741.304 130.807 744.869 Q129.001 748.41 129.001 755.54 Q129.001 762.646 130.807 766.211 Q132.635 769.753 136.246 769.753 Q139.881 769.753 141.686 766.211 Q143.515 762.646 143.515 755.54 Q143.515 748.41 141.686 744.869 Q139.881 741.304 136.246 741.304 M136.246 737.6 Q142.056 737.6 145.112 742.207 Q148.191 746.79 148.191 755.54 Q148.191 764.267 145.112 768.873 Q142.056 773.456 136.246 773.456 Q130.436 773.456 127.357 768.873 Q124.302 764.267 124.302 755.54 Q124.302 746.79 127.357 742.207 Q130.436 737.6 136.246 737.6 Z" fill="#000000" fill-rule="nonzero" fill-opacity="1" /><path clip-path="url(#clip910)" d="M52.6588 521.576 L60.2976 521.576 L60.2976 495.21 L51.9875 496.877 L51.9875 492.618 L60.2513 490.951 L64.9272 490.951 L64.9272 521.576 L72.5661 521.576 L72.5661 525.511 L52.6588 525.511 L52.6588 521.576 Z" fill="#000000" fill-rule="nonzero" fill-opacity="1" /><path clip-path="url(#clip910)" d="M86.0382 521.576 L102.358 521.576 L102.358 525.511 L80.4133 525.511 L80.4133 521.576 Q83.0753 518.821 87.6586 514.191 Q92.2651 509.539 93.4456 508.196 Q95.691 505.673 96.5706 503.937 Q97.4734 502.178 97.4734 500.488 Q97.4734 497.733 95.5289 495.997 Q93.6076 494.261 90.5058 494.261 Q88.3067 494.261 85.8531 495.025 Q83.4225 495.789 80.6447 497.34 L80.6447 492.618 Q83.4688 491.483 85.9225 490.905 Q88.3762 490.326 90.4132 490.326 Q95.7836 490.326 98.978 493.011 Q102.172 495.696 102.172 500.187 Q102.172 502.317 101.362 504.238 Q100.575 506.136 98.4687 508.729 Q97.89 509.4 94.7882 512.617 Q91.6864 515.812 86.0382 521.576 Z" fill="#000000" fill-rule="nonzero" fill-opacity="1" /><path clip-path="url(#clip910)" d="M112.172 519.631 L117.057 519.631 L117.057 525.511 L112.172 525.511 L112.172 519.631 Z" fill="#000000" fill-rule="nonzero" fill-opacity="1" /><path clip-path="url(#clip910)" d="M127.288 490.951 L145.644 490.951 L145.644 494.886 L131.57 494.886 L131.57 503.358 Q132.589 503.011 133.607 502.849 Q134.626 502.664 135.644 502.664 Q141.431 502.664 144.811 505.835 Q148.191 509.006 148.191 514.423 Q148.191 520.002 144.718 523.103 Q141.246 526.182 134.927 526.182 Q132.751 526.182 130.482 525.812 Q128.237 525.441 125.83 524.701 L125.83 520.002 Q127.913 521.136 130.135 521.691 Q132.357 522.247 134.834 522.247 Q138.839 522.247 141.177 520.141 Q143.515 518.034 143.515 514.423 Q143.515 510.812 141.177 508.705 Q138.839 506.599 134.834 506.599 Q132.959 506.599 131.084 507.016 Q129.232 507.432 127.288 508.312 L127.288 490.951 Z" fill="#000000" fill-rule="nonzero" fill-opacity="1" /><path clip-path="url(#clip910)" d="M51.6634 274.301 L59.3023 274.301 L59.3023 247.936 L50.9921 249.603 L50.9921 245.343 L59.256 243.677 L63.9319 243.677 L63.9319 274.301 L71.5707 274.301 L71.5707 278.237 L51.6634 278.237 L51.6634 274.301 Z" fill="#000000" fill-rule="nonzero" fill-opacity="1" /><path clip-path="url(#clip910)" d="M81.0614 243.677 L99.4178 243.677 L99.4178 247.612 L85.3438 247.612 L85.3438 256.084 Q86.3623 255.737 87.3808 255.575 Q88.3993 255.39 89.4178 255.39 Q95.2049 255.39 98.5845 258.561 Q101.964 261.732 101.964 267.149 Q101.964 272.727 98.4919 275.829 Q95.0197 278.908 88.7003 278.908 Q86.5243 278.908 84.2558 278.538 Q82.0105 278.167 79.6031 277.426 L79.6031 272.727 Q81.6864 273.862 83.9086 274.417 Q86.1308 274.973 88.6077 274.973 Q92.6123 274.973 94.9502 272.866 Q97.2882 270.76 97.2882 267.149 Q97.2882 263.538 94.9502 261.431 Q92.6123 259.325 88.6077 259.325 Q86.7327 259.325 84.8577 259.741 Q83.0058 260.158 81.0614 261.038 L81.0614 243.677 Z" fill="#000000" fill-rule="nonzero" fill-opacity="1" /><path clip-path="url(#clip910)" d="M111.177 272.357 L116.061 272.357 L116.061 278.237 L111.177 278.237 L111.177 272.357 Z" fill="#000000" fill-rule="nonzero" fill-opacity="1" /><path clip-path="url(#clip910)" d="M136.246 246.755 Q132.635 246.755 130.807 250.32 Q129.001 253.862 129.001 260.991 Q129.001 268.098 130.807 271.663 Q132.635 275.204 136.246 275.204 Q139.881 275.204 141.686 271.663 Q143.515 268.098 143.515 260.991 Q143.515 253.862 141.686 250.32 Q139.881 246.755 136.246 246.755 M136.246 243.052 Q142.056 243.052 145.112 247.658 Q148.191 252.241 148.191 260.991 Q148.191 269.718 145.112 274.325 Q142.056 278.908 136.246 278.908 Q130.436 278.908 127.357 274.325 Q124.302 269.718 124.302 260.991 Q124.302 252.241 127.357 247.658 Q130.436 243.052 136.246 243.052 Z" fill="#000000" fill-rule="nonzero" fill-opacity="1" /><path clip-path="url(#clip910)" d="M945.09 43.6931 L945.09 65.8515 L958.215 65.8515 Q964.818 65.8515 967.977 63.1374 Q971.177 60.3828 971.177 54.752 Q971.177 49.0808 967.977 46.4072 Q964.818 43.6931 958.215 43.6931 L945.09 43.6931 M945.09 18.8205 L945.09 37.0496 L957.202 37.0496 Q963.197 37.0496 966.114 34.8216 Q969.071 32.5531 969.071 27.935 Q969.071 23.3575 966.114 21.089 Q963.197 18.8205 957.202 18.8205 L945.09 18.8205 M936.907 12.096 L957.809 12.096 Q967.167 12.096 972.231 15.9849 Q977.294 19.8737 977.294 27.0438 Q977.294 32.5936 974.702 35.8748 Q972.109 39.156 967.086 39.9662 Q973.122 41.2625 976.444 45.3944 Q979.806 49.4858 979.806 55.6432 Q979.806 63.745 974.297 68.1605 Q968.787 72.576 958.62 72.576 L936.907 72.576 L936.907 12.096 Z" fill="#000000" fill-rule="nonzero" fill-opacity="1" /><path clip-path="url(#clip910)" d="M1014.12 49.7694 Q1005.08 49.7694 1001.6 51.8354 Q998.116 53.9013 998.116 58.8839 Q998.116 62.8538 1000.71 65.2034 Q1003.34 67.5124 1007.84 67.5124 Q1014.04 67.5124 1017.76 63.1374 Q1021.53 58.7219 1021.53 51.4303 L1021.53 49.7694 L1014.12 49.7694 M1028.98 46.6907 L1028.98 72.576 L1021.53 72.576 L1021.53 65.6895 Q1018.98 69.8214 1015.17 71.8063 Q1011.36 73.7508 1005.85 73.7508 Q998.886 73.7508 994.754 69.8619 Q990.662 65.9325 990.662 59.3701 Q990.662 51.7138 995.766 47.825 Q1000.91 43.9361 1011.08 43.9361 L1021.53 43.9361 L1021.53 43.2069 Q1021.53 38.0623 1018.13 35.2672 Q1014.77 32.4315 1008.65 32.4315 Q1004.76 32.4315 1001.07 33.3632 Q997.387 34.295 993.984 36.1584 L993.984 29.2718 Q998.075 27.692 1001.92 26.9223 Q1005.77 26.1121 1009.42 26.1121 Q1019.26 26.1121 1024.12 31.2163 Q1028.98 36.3204 1028.98 46.6907 Z" fill="#000000" fill-rule="nonzero" fill-opacity="1" /><path clip-path="url(#clip910)" d="M1073.26 28.5427 L1073.26 35.5912 Q1070.1 33.9709 1066.7 33.1607 Q1063.29 32.3505 1059.65 32.3505 Q1054.1 32.3505 1051.3 34.0519 Q1048.55 35.7533 1048.55 39.156 Q1048.55 41.7486 1050.53 43.2475 Q1052.52 44.7058 1058.51 46.0426 L1061.07 46.6097 Q1069.01 48.3111 1072.33 51.4303 Q1075.69 54.509 1075.69 60.0587 Q1075.69 66.3781 1070.67 70.0644 Q1065.69 73.7508 1056.94 73.7508 Q1053.29 73.7508 1049.32 73.0216 Q1045.39 72.3329 1041.02 70.9151 L1041.02 63.2184 Q1045.15 65.3654 1049.16 66.4591 Q1053.17 67.5124 1057.1 67.5124 Q1062.36 67.5124 1065.2 65.73 Q1068.03 63.9071 1068.03 60.6258 Q1068.03 57.5877 1065.97 55.9673 Q1063.94 54.3469 1057.02 52.8481 L1054.42 52.2405 Q1047.5 50.7821 1044.42 47.7845 Q1041.34 44.7463 1041.34 39.4801 Q1041.34 33.0797 1045.88 29.5959 Q1050.41 26.1121 1058.76 26.1121 Q1062.89 26.1121 1066.54 26.7198 Q1070.18 27.3274 1073.26 28.5427 Z" fill="#000000" fill-rule="nonzero" fill-opacity="1" /><path clip-path="url(#clip910)" d="M1087.56 27.2059 L1095.01 27.2059 L1095.01 72.576 L1087.56 72.576 L1087.56 27.2059 M1087.56 9.54393 L1095.01 9.54393 L1095.01 18.9825 L1087.56 18.9825 L1087.56 9.54393 Z" fill="#000000" fill-rule="nonzero" fill-opacity="1" /><path clip-path="url(#clip910)" d="M1143.26 28.9478 L1143.26 35.9153 Q1140.1 34.1734 1136.9 33.3227 Q1133.74 32.4315 1130.5 32.4315 Q1123.25 32.4315 1119.24 37.0496 Q1115.23 41.6271 1115.23 49.9314 Q1115.23 58.2358 1119.24 62.8538 Q1123.25 67.4314 1130.5 67.4314 Q1133.74 67.4314 1136.9 66.5807 Q1140.1 65.6895 1143.26 63.9476 L1143.26 70.8341 Q1140.14 72.2924 1136.78 73.0216 Q1133.46 73.7508 1129.69 73.7508 Q1119.44 73.7508 1113.4 67.3098 Q1107.37 60.8689 1107.37 49.9314 Q1107.37 38.832 1113.45 32.472 Q1119.56 26.1121 1130.18 26.1121 Q1133.62 26.1121 1136.9 26.8413 Q1140.18 27.5299 1143.26 28.9478 Z" fill="#000000" fill-rule="nonzero" fill-opacity="1" /><path clip-path="url(#clip910)" d="M1182.92 12.096 L1191.1 12.096 L1191.1 65.6895 L1220.55 65.6895 L1220.55 72.576 L1182.92 72.576 L1182.92 12.096 Z" fill="#000000" fill-rule="nonzero" fill-opacity="1" /><path clip-path="url(#clip910)" d="M1228.81 27.2059 L1236.27 27.2059 L1236.27 72.576 L1228.81 72.576 L1228.81 27.2059 M1228.81 9.54393 L1236.27 9.54393 L1236.27 18.9825 L1228.81 18.9825 L1228.81 9.54393 Z" fill="#000000" fill-rule="nonzero" fill-opacity="1" /><path clip-path="url(#clip910)" d="M1289.58 45.1919 L1289.58 72.576 L1282.12 72.576 L1282.12 45.4349 Q1282.12 38.994 1279.61 35.7938 Q1277.1 32.5936 1272.08 32.5936 Q1266.04 32.5936 1262.56 36.4419 Q1259.08 40.2903 1259.08 46.9338 L1259.08 72.576 L1251.58 72.576 L1251.58 27.2059 L1259.08 27.2059 L1259.08 34.2544 Q1261.75 30.163 1265.35 28.1376 Q1269 26.1121 1273.74 26.1121 Q1281.56 26.1121 1285.57 30.9732 Q1289.58 35.7938 1289.58 45.1919 Z" fill="#000000" fill-rule="nonzero" fill-opacity="1" /><path clip-path="url(#clip910)" d="M1343.25 48.0275 L1343.25 51.6733 L1308.98 51.6733 Q1309.47 59.3701 1313.6 63.421 Q1317.77 67.4314 1325.19 67.4314 Q1329.48 67.4314 1333.49 66.3781 Q1337.54 65.3249 1341.51 63.2184 L1341.51 70.267 Q1337.5 71.9684 1333.29 72.8596 Q1329.07 73.7508 1324.74 73.7508 Q1313.88 73.7508 1307.52 67.4314 Q1301.2 61.1119 1301.2 50.3365 Q1301.2 39.1965 1307.2 32.6746 Q1313.24 26.1121 1323.44 26.1121 Q1332.6 26.1121 1337.91 32.0264 Q1343.25 37.9003 1343.25 48.0275 M1335.8 45.84 Q1335.72 39.7232 1332.36 36.0774 Q1329.03 32.4315 1323.53 32.4315 Q1317.29 32.4315 1313.52 35.9558 Q1309.79 39.4801 1309.23 45.8805 L1335.8 45.84 Z" fill="#000000" fill-rule="nonzero" fill-opacity="1" /><path clip-path="url(#clip910)" d="M1427.47 16.7545 L1427.47 25.383 Q1423.34 21.5346 1418.64 19.6307 Q1413.98 17.7268 1408.72 17.7268 Q1398.35 17.7268 1392.84 24.0867 Q1387.33 30.4061 1387.33 42.3968 Q1387.33 54.3469 1392.84 60.7069 Q1398.35 67.0263 1408.72 67.0263 Q1413.98 67.0263 1418.64 65.1223 Q1423.34 63.2184 1427.47 59.3701 L1427.47 67.9175 Q1423.18 70.8341 1418.36 72.2924 Q1413.58 73.7508 1408.23 73.7508 Q1394.5 73.7508 1386.6 65.3654 Q1378.7 56.9395 1378.7 42.3968 Q1378.7 27.8135 1386.6 19.4281 Q1394.5 11.0023 1408.23 11.0023 Q1413.66 11.0023 1418.44 12.4606 Q1423.26 13.8784 1427.47 16.7545 Z" fill="#000000" fill-rule="nonzero" fill-opacity="1" /><path clip-path="url(#clip910)" d="M1477.5 45.1919 L1477.5 72.576 L1470.05 72.576 L1470.05 45.4349 Q1470.05 38.994 1467.53 35.7938 Q1465.02 32.5936 1460 32.5936 Q1453.96 32.5936 1450.48 36.4419 Q1447 40.2903 1447 46.9338 L1447 72.576 L1439.5 72.576 L1439.5 9.54393 L1447 9.54393 L1447 34.2544 Q1449.67 30.163 1453.28 28.1376 Q1456.92 26.1121 1461.66 26.1121 Q1469.48 26.1121 1473.49 30.9732 Q1477.5 35.7938 1477.5 45.1919 Z" fill="#000000" fill-rule="nonzero" fill-opacity="1" /><path clip-path="url(#clip910)" d="M1512.99 49.7694 Q1503.95 49.7694 1500.47 51.8354 Q1496.98 53.9013 1496.98 58.8839 Q1496.98 62.8538 1499.58 65.2034 Q1502.21 67.5124 1506.71 67.5124 Q1512.9 67.5124 1516.63 63.1374 Q1520.4 58.7219 1520.4 51.4303 L1520.4 49.7694 L1512.99 49.7694 M1527.85 46.6907 L1527.85 72.576 L1520.4 72.576 L1520.4 65.6895 Q1517.85 69.8214 1514.04 71.8063 Q1510.23 73.7508 1504.72 73.7508 Q1497.75 73.7508 1493.62 69.8619 Q1489.53 65.9325 1489.53 59.3701 Q1489.53 51.7138 1494.64 47.825 Q1499.78 43.9361 1509.95 43.9361 L1520.4 43.9361 L1520.4 43.2069 Q1520.4 38.0623 1517 35.2672 Q1513.63 32.4315 1507.52 32.4315 Q1503.63 32.4315 1499.94 33.3632 Q1496.26 34.295 1492.85 36.1584 L1492.85 29.2718 Q1496.94 27.692 1500.79 26.9223 Q1504.64 26.1121 1508.29 26.1121 Q1518.13 26.1121 1522.99 31.2163 Q1527.85 36.3204 1527.85 46.6907 Z" fill="#000000" fill-rule="nonzero" fill-opacity="1" /><path clip-path="url(#clip910)" d="M1569.5 34.1734 Q1568.24 33.4443 1566.74 33.1202 Q1565.28 32.7556 1563.5 32.7556 Q1557.18 32.7556 1553.78 36.8875 Q1550.42 40.9789 1550.42 48.6757 L1550.42 72.576 L1542.92 72.576 L1542.92 27.2059 L1550.42 27.2059 L1550.42 34.2544 Q1552.77 30.1225 1556.53 28.1376 Q1560.3 26.1121 1565.69 26.1121 Q1566.46 26.1121 1567.39 26.2337 Q1568.32 26.3147 1569.46 26.5172 L1569.5 34.1734 Z" fill="#000000" fill-rule="nonzero" fill-opacity="1" /><path clip-path="url(#clip910)" d="M1584.69 14.324 L1584.69 27.2059 L1600.04 27.2059 L1600.04 32.9987 L1584.69 32.9987 L1584.69 57.6282 Q1584.69 63.1779 1586.19 64.7578 Q1587.73 66.3376 1592.38 66.3376 L1600.04 66.3376 L1600.04 72.576 L1592.38 72.576 Q1583.76 72.576 1580.47 69.3758 Q1577.19 66.1351 1577.19 57.6282 L1577.19 32.9987 L1571.72 32.9987 L1571.72 27.2059 L1577.19 27.2059 L1577.19 14.324 L1584.69 14.324 Z" fill="#000000" fill-rule="nonzero" fill-opacity="1" /><polyline clip-path="url(#clip912)" style="stroke:#009af9; stroke-linecap:round; stroke-linejoin:round; stroke-width:4; stroke-opacity:1; fill:none" points="245.565,1447.87 757.019,1151.14 1268.47,854.415 1779.93,260.957 2291.38,162.047 "/>
<path clip-path="url(#clip910)" d="M256.476 272.585 L564.953 272.585 L564.953 168.905 L256.476 168.905  Z" fill="#ffffff" fill-rule="evenodd" fill-opacity="1"/>
<polyline clip-path="url(#clip910)" style="stroke:#000000; stroke-linecap:round; stroke-linejoin:round; stroke-width:4; stroke-opacity:1; fill:none" points="256.476,272.585 564.953,272.585 564.953,168.905 256.476,168.905 256.476,272.585 "/>
<polyline clip-path="url(#clip910)" style="stroke:#009af9; stroke-linecap:round; stroke-linejoin:round; stroke-width:4; stroke-opacity:1; fill:none" points="280.571,220.745 425.142,220.745 "/>
<path clip-path="url(#clip910)" d="M449.238 203.465 L453.913 203.465 L453.913 234.089 L470.742 234.089 L470.742 238.025 L449.238 238.025 L449.238 203.465 Z" fill="#000000" fill-rule="nonzero" fill-opacity="1" /><path clip-path="url(#clip910)" d="M475.464 212.099 L479.723 212.099 L479.723 238.025 L475.464 238.025 L475.464 212.099 M475.464 202.006 L479.723 202.006 L479.723 207.4 L475.464 207.4 L475.464 202.006 Z" fill="#000000" fill-rule="nonzero" fill-opacity="1" /><path clip-path="url(#clip910)" d="M510.186 222.377 L510.186 238.025 L505.927 238.025 L505.927 222.515 Q505.927 218.835 504.492 217.006 Q503.057 215.178 500.186 215.178 Q496.737 215.178 494.747 217.377 Q492.756 219.576 492.756 223.372 L492.756 238.025 L488.473 238.025 L488.473 212.099 L492.756 212.099 L492.756 216.127 Q494.284 213.789 496.344 212.631 Q498.427 211.474 501.135 211.474 Q505.603 211.474 507.895 214.252 Q510.186 217.006 510.186 222.377 Z" fill="#000000" fill-rule="nonzero" fill-opacity="1" /><path clip-path="url(#clip910)" d="M540.857 223.997 L540.857 226.08 L521.274 226.08 Q521.552 230.478 523.913 232.793 Q526.297 235.085 530.533 235.085 Q532.987 235.085 535.279 234.483 Q537.594 233.881 539.862 232.677 L539.862 236.705 Q537.57 237.677 535.163 238.187 Q532.756 238.696 530.279 238.696 Q524.075 238.696 520.441 235.085 Q516.83 231.474 516.83 225.316 Q516.83 218.951 520.256 215.224 Q523.705 211.474 529.538 211.474 Q534.769 211.474 537.802 214.853 Q540.857 218.21 540.857 223.997 M536.598 222.747 Q536.552 219.252 534.631 217.168 Q532.732 215.085 529.584 215.085 Q526.02 215.085 523.867 217.099 Q521.737 219.113 521.413 222.77 L536.598 222.747 Z" fill="#000000" fill-rule="nonzero" fill-opacity="1" /></svg>
